#N canvas 532 282 1251 674 12;
#X obj 124 113 vs.bltri~;
#X floatatom 124 66 5 0 0 0 - - -;
#X obj 202 115 *~ 0.5;
#X obj 202 190 +~ 1;
#X obj 204 331 *~ 80;
#X obj 204 356 +~ 80;
#X obj 202 165 *~ 16;
#X obj 202 140 +~ 0.5;
#X obj 202 90 vs.rand2~ 0.1;
#X obj 347 118 vs.bltri~;
#X floatatom 347 71 5 0 0 0 - - -;
#X obj 425 120 *~ 0.5;
#X obj 425 195 +~ 1;
#X obj 425 220 *~ 80;
#X obj 425 245 +~ 80;
#X obj 425 170 *~ 16;
#X obj 425 145 +~ 0.5;
#X obj 425 95 vs.rand2~ 0.1;
#X obj 522 183 vs.bltri~;
#X floatatom 522 136 5 0 0 0 - - -;
#X obj 600 185 *~ 0.5;
#X obj 600 260 +~ 1;
#X obj 600 285 *~ 80;
#X obj 600 310 +~ 80;
#X obj 600 235 *~ 16;
#X obj 600 210 +~ 0.5;
#X obj 600 160 vs.rand2~ 0.1;
#X obj 745 188 vs.bltri~;
#X floatatom 745 141 5 0 0 0 - - -;
#X obj 823 190 *~ 0.5;
#X obj 823 265 +~ 1;
#X obj 823 290 *~ 80;
#X obj 823 315 +~ 80;
#X obj 823 240 *~ 16;
#X obj 823 215 +~ 0.5;
#X obj 823 165 vs.rand2~ 0.1;
#X obj 330 220 hip~ 100;
#X obj 328 245 hip~ 100;
#X obj 505 286 hip~ 100;
#X obj 503 311 hip~ 100;
#X obj 715 300 hip~ 100;
#X obj 713 325 hip~ 100;
#X obj 113 274 vcf~ 150;
#X obj 347 143 vcf~ 150;
#X obj 522 208 vcf~ 150;
#X obj 745 213 vcf~ 150;
#X obj 114 299 *~ 30;
#X obj 347 168 *~ 30;
#X obj 522 233 *~ 30;
#X obj 744 238 *~ 30;
#X obj 329 280 hip~ 100;
#X obj 327 305 hip~ 100;
#X obj 503 345 hip~ 100;
#X obj 501 370 hip~ 100;
#X obj 712 356 hip~ 100;
#X obj 710 381 hip~ 100;
#X obj 102 388 dac~;
#X obj 88 140 hip~ 100;
#X obj 86 165 hip~ 100;
#X obj 82 201 hip~ 100;
#X obj 80 226 hip~ 100;
#X connect 0 0 57 0;
#X connect 1 0 0 0;
#X connect 1 0 4 1;
#X connect 1 0 5 1;
#X connect 2 0 7 0;
#X connect 3 0 4 0;
#X connect 4 0 5 0;
#X connect 5 0 42 1;
#X connect 6 0 3 0;
#X connect 7 0 6 0;
#X connect 8 0 2 0;
#X connect 9 0 43 0;
#X connect 10 0 9 0;
#X connect 10 0 13 1;
#X connect 10 0 14 1;
#X connect 11 0 16 0;
#X connect 12 0 13 0;
#X connect 13 0 14 0;
#X connect 14 0 43 1;
#X connect 15 0 12 0;
#X connect 16 0 15 0;
#X connect 17 0 11 0;
#X connect 18 0 44 0;
#X connect 19 0 18 0;
#X connect 19 0 22 1;
#X connect 19 0 23 1;
#X connect 20 0 25 0;
#X connect 21 0 22 0;
#X connect 22 0 23 0;
#X connect 23 0 44 1;
#X connect 24 0 21 0;
#X connect 25 0 24 0;
#X connect 26 0 20 0;
#X connect 27 0 45 0;
#X connect 28 0 27 0;
#X connect 28 0 31 1;
#X connect 28 0 32 1;
#X connect 29 0 34 0;
#X connect 30 0 31 0;
#X connect 31 0 32 0;
#X connect 32 0 45 1;
#X connect 33 0 30 0;
#X connect 34 0 33 0;
#X connect 35 0 29 0;
#X connect 36 0 37 0;
#X connect 37 0 50 0;
#X connect 38 0 39 0;
#X connect 39 0 52 0;
#X connect 40 0 41 0;
#X connect 41 0 54 0;
#X connect 42 0 46 0;
#X connect 43 0 47 0;
#X connect 44 0 48 0;
#X connect 45 0 49 0;
#X connect 46 0 56 0;
#X connect 46 0 56 1;
#X connect 47 0 36 0;
#X connect 48 0 38 0;
#X connect 49 0 40 0;
#X connect 50 0 51 0;
#X connect 52 0 53 0;
#X connect 54 0 55 0;
#X connect 57 0 58 0;
#X connect 58 0 59 0;
#X connect 59 0 60 0;
#X connect 60 0 42 0;
