#N canvas 477 141 1365 836 12;
#X obj 185 56 hsl 33 15 0 32 0 0 empty empty empty -2 -8 0 10 -262144
-1 -1 2300 1;
#X floatatom 182 76 5 0 0 0 - - -;
#X obj 72 149 osc~;
#X floatatom 125 118 5 0 0 0 - - -;
#X obj 125 149 *~;
#X obj 93 190 *~;
#X obj 222 454 *~ 0.25;
#X obj 222 479 dac~;
#X obj 182 125 vline~;
#X msg 300 61 1;
#X msg 182 100 \$1 100;
#X obj 264 30 sel 0 1;
#X obj 401 77 tgl 15 0 empty empty empty 17 7 0 10 -262144 -1 -1 1
1;
#X obj 401 97 metro 125;
#X obj 401 121 tgl 15 0 empty empty empty 17 7 0 10 -262144 -1 -1 1
1;
#X msg 264 60 8;
#X obj 163 240 vs.scope~;
#X obj 168 395 osc~ 80;
#X obj 415 353 vcf~ 100;
#X obj 721 375 dac~;
#X obj 720 283 vcf~ 100;
#X msg 609 134 0;
#X obj 626 72 bng 15 250 50 0 empty empty empty 17 7 0 10 -262144 -1
-1;
#X obj 415 175 vs.impulse~ 8;
#X obj 720 192 vs.impulse~ 8;
#X floatatom 813 319 5 0 0 0 - - -;
#X obj 415 378 *~ 100;
#X obj 720 308 *~ 100;
#X obj 758 248 sig~ 5000;
#X obj 831 241 +~ 100;
#X obj 831 268 samphold~;
#X obj 527 261 +~ 100;
#X obj 527 288 samphold~;
#X obj 415 478 dac~;
#X obj 899 224 samphold~;
#X obj 911 153 noise~;
#X obj 899 276 abs~;
#X obj 831 216 *~;
#X obj 616 523 samphold~;
#X obj 628 452 noise~;
#X obj 616 548 abs~;
#X obj 527 236 *~;
#X obj 900 397 mtof~;
#X obj 616 598 +~ 60;
#X obj 900 372 +~ 60;
#X obj 616 623 mtof~;
#X msg 715 133 0;
#X obj 527 211 phasor~ 1;
#X obj 831 191 phasor~ 1.5;
#X obj 933 715 dac~;
#X obj 934 637 vcf~ 100;
#X obj 926 477 vs.impulse~ 8;
#X obj 934 662 *~ 100;
#X obj 964 533 sig~ 5000;
#X obj 1038 568 +~ 100;
#X obj 1038 595 samphold~;
#X obj 1172 422 samphold~;
#X obj 1153 390 noise~;
#X obj 1165 474 abs~;
#X obj 1038 543 *~;
#X obj 1166 595 mtof~;
#X obj 1037 476 phasor~ 1.75;
#X obj 934 687 *~ 0.5;
#X obj 233 749 dac~;
#X obj 257 662 vcf~ 100;
#X obj 257 571 vs.impulse~ 8;
#X obj 257 687 *~ 100;
#X obj 295 627 sig~ 5000;
#X obj 368 620 +~ 100;
#X obj 368 647 samphold~;
#X obj 436 603 samphold~;
#X obj 448 532 noise~;
#X obj 436 655 abs~;
#X obj 368 595 *~;
#X obj 437 776 mtof~;
#X obj 437 751 +~ 60;
#X obj 257 712 *~ 0.5;
#X obj 368 570 phasor~ 0.75;
#X obj 1083 92 phasor~ 0.01;
#X obj 1083 117 *~ 60;
#X obj 900 347 *~;
#X obj 616 573 *~;
#X obj 437 726 *~;
#X obj 1166 570 +~ 60;
#X obj 1166 545 *~;
#X msg 1130 53 0;
#X obj 433 264 lop~ 1000;
#X obj 706 228 lop~ 1000;
#X obj 879 580 lop~ 1000;
#X obj 257 596 lop~ 1000;
#X connect 0 0 1 0;
#X connect 1 0 10 0;
#X connect 2 0 5 0;
#X connect 3 0 2 0;
#X connect 3 0 4 0;
#X connect 4 0 5 1;
#X connect 6 0 7 0;
#X connect 6 0 7 1;
#X connect 8 0 4 1;
#X connect 9 0 10 0;
#X connect 10 0 8 0;
#X connect 11 0 15 0;
#X connect 11 1 9 0;
#X connect 12 0 13 0;
#X connect 13 0 14 0;
#X connect 15 0 10 0;
#X connect 18 0 26 0;
#X connect 20 0 27 0;
#X connect 21 0 23 1;
#X connect 21 0 47 1;
#X connect 21 0 65 1;
#X connect 21 0 77 1;
#X connect 22 0 21 0;
#X connect 22 0 46 0;
#X connect 23 0 16 0;
#X connect 23 0 32 1;
#X connect 23 0 86 0;
#X connect 24 0 30 1;
#X connect 24 0 87 0;
#X connect 25 0 20 2;
#X connect 25 0 18 2;
#X connect 25 0 64 2;
#X connect 25 0 50 2;
#X connect 26 0 33 0;
#X connect 27 0 19 1;
#X connect 29 0 30 0;
#X connect 30 0 20 1;
#X connect 31 0 32 0;
#X connect 32 0 18 1;
#X connect 34 0 36 0;
#X connect 35 0 34 0;
#X connect 36 0 80 0;
#X connect 37 0 29 0;
#X connect 38 0 40 0;
#X connect 39 0 38 0;
#X connect 40 0 81 0;
#X connect 41 0 31 0;
#X connect 42 0 37 1;
#X connect 43 0 45 0;
#X connect 44 0 42 0;
#X connect 45 0 41 1;
#X connect 46 0 24 1;
#X connect 46 0 48 1;
#X connect 46 0 51 1;
#X connect 46 0 61 1;
#X connect 47 0 41 0;
#X connect 47 0 38 1;
#X connect 48 0 34 1;
#X connect 48 0 37 0;
#X connect 50 0 52 0;
#X connect 51 0 55 1;
#X connect 51 0 88 0;
#X connect 52 0 62 0;
#X connect 52 0 49 1;
#X connect 54 0 55 0;
#X connect 55 0 50 1;
#X connect 56 0 58 0;
#X connect 57 0 56 0;
#X connect 58 0 84 0;
#X connect 59 0 54 0;
#X connect 60 0 59 1;
#X connect 61 0 56 1;
#X connect 61 0 59 0;
#X connect 62 0 49 0;
#X connect 64 0 66 0;
#X connect 65 0 69 1;
#X connect 65 0 89 0;
#X connect 66 0 76 0;
#X connect 66 0 63 0;
#X connect 68 0 69 0;
#X connect 69 0 64 1;
#X connect 70 0 72 0;
#X connect 71 0 70 0;
#X connect 72 0 82 0;
#X connect 73 0 68 0;
#X connect 74 0 73 1;
#X connect 75 0 74 0;
#X connect 76 0 63 1;
#X connect 77 0 70 1;
#X connect 77 0 73 0;
#X connect 78 0 79 0;
#X connect 79 0 80 1;
#X connect 79 0 82 1;
#X connect 79 0 81 1;
#X connect 79 0 84 1;
#X connect 80 0 44 0;
#X connect 81 0 43 0;
#X connect 82 0 75 0;
#X connect 83 0 60 0;
#X connect 84 0 83 0;
#X connect 85 0 78 1;
#X connect 86 0 18 0;
#X connect 87 0 20 0;
#X connect 88 0 50 0;
#X connect 89 0 64 0;
