#N canvas 106 118 1605 857 12;
#X floatatom 374 183 5 0 0 0 - - -;
#X obj 463 261 bng 15 250 50 0 empty empty empty 17 7 0 10 -262144
-1 -1;
#N canvas 4 62 768 301 rand_freq 0;
#X obj 111 65 inlet;
#X obj 111 231 outlet;
#X obj 111 206 vs.prepend freq;
#X obj 111 183 list prepend 1;
#X text 210 85 Generates a list of 8 frequencies values. The list is
preceeded by the number of first filter from which set frequencise.
So the list 1 100 200 300 sets frequency 100 Hz in the first filter
\, 200 in the second and 300 in the third.;
#X text 211 207 To set frequencies you have to use the keyword "freq"
;
#X obj 111 132 + 100;
#X obj 111 110 random 3900;
#X obj 111 88 vs.uzi 16;
#X obj 111 156 vs.group 16;
#X connect 0 0 8 0;
#X connect 2 0 1 0;
#X connect 3 0 2 0;
#X connect 6 0 9 0;
#X connect 7 0 6 0;
#X connect 8 0 7 0;
#X connect 9 0 3 0;
#X restore 463 285 pd rand_freq;
#N canvas 4 62 1008 465 Q_factor 0;
#X obj 125 63 inlet;
#X obj 125 359 outlet;
#X obj 231 281 list prepend 1;
#X obj 231 313 vs.prepend Q;
#X obj 125 171 list prepend 1;
#X obj 125 203 vs.prepend gain;
#X obj 125 107 sqrt;
#X floatatom 125 129 5 0 0 0 - - -;
#X text 312 315 To set frequencies you have to use the keyword "Q"
(strictly uppercase);
#X text 222 204 To set gains you have to use the keyword "gain";
#X text 218 173 set gains starting from first filter;
#X text 324 281 set Q's starting from first filter;
#X text 158 108 gain is square root of Q factor;
#X obj 125 149 vs.repeat 16;
#X obj 231 259 vs.repeat 16;
#X connect 0 0 6 0;
#X connect 0 0 14 0;
#X connect 2 0 3 0;
#X connect 3 0 1 0;
#X connect 4 0 5 0;
#X connect 5 0 1 0;
#X connect 6 0 7 0;
#X connect 7 0 13 0;
#X connect 13 0 4 0;
#X connect 14 0 2 0;
#X restore 374 211 pd Q_factor;
#X obj 667 771 dac~;
#X obj 277 283 noise~;
#X floatatom 679 200 5 0 0 0 - - -;
#X obj 768 278 bng 15 250 50 0 empty empty empty 17 7 0 10 -262144
-1 -1;
#N canvas 4 62 768 301 rand_freq 0;
#X obj 111 65 inlet;
#X obj 111 231 outlet;
#X obj 111 206 vs.prepend freq;
#X obj 111 183 list prepend 1;
#X text 210 85 Generates a list of 8 frequencies values. The list is
preceeded by the number of first filter from which set frequencise.
So the list 1 100 200 300 sets frequency 100 Hz in the first filter
\, 200 in the second and 300 in the third.;
#X text 211 207 To set frequencies you have to use the keyword "freq"
;
#X obj 111 132 + 100;
#X obj 111 110 random 3900;
#X obj 111 88 vs.uzi 16;
#X obj 111 156 vs.group 16;
#X connect 0 0 8 0;
#X connect 2 0 1 0;
#X connect 3 0 2 0;
#X connect 6 0 9 0;
#X connect 7 0 6 0;
#X connect 8 0 7 0;
#X connect 9 0 3 0;
#X restore 768 302 pd rand_freq;
#N canvas 4 62 1008 465 Q_factor 0;
#X obj 125 63 inlet;
#X obj 125 359 outlet;
#X obj 231 281 list prepend 1;
#X obj 231 313 vs.prepend Q;
#X obj 125 171 list prepend 1;
#X obj 125 203 vs.prepend gain;
#X obj 125 107 sqrt;
#X floatatom 125 129 5 0 0 0 - - -;
#X text 312 315 To set frequencies you have to use the keyword "Q"
(strictly uppercase);
#X text 222 204 To set gains you have to use the keyword "gain";
#X text 218 173 set gains starting from first filter;
#X text 324 281 set Q's starting from first filter;
#X text 158 108 gain is square root of Q factor;
#X obj 125 149 vs.repeat 16;
#X obj 231 259 vs.repeat 16;
#X connect 0 0 6 0;
#X connect 0 0 14 0;
#X connect 2 0 3 0;
#X connect 3 0 1 0;
#X connect 4 0 5 0;
#X connect 5 0 1 0;
#X connect 6 0 7 0;
#X connect 7 0 13 0;
#X connect 13 0 4 0;
#X connect 14 0 2 0;
#X restore 679 228 pd Q_factor;
#X obj 548 56 metro 8000;
#X obj 560 2 tgl 15 0 empty empty empty 17 7 0 10 -262144 -1 -1 1 1
;
#X obj 548 81 tgl 15 0 empty empty empty 17 7 0 10 -262144 -1 -1 1
1;
#X obj 648 118 sel 1 0;
#X obj 668 639 vs.sgain~;
#X obj 222 417 *~;
#X obj 525 397 *~;
#X obj 255 419 vline~;
#X obj 548 101 vs.!- 1;
#X obj 560 423 vline~;
#X obj 220 355 vs.filterbank~ 16 40 1.5 1000 10;
#X obj 525 372 vs.filterbank~ 16 40 1.5 1000 10;
#X msg 255 394 \$1 8000;
#X msg 560 398 \$1 8000;
#X floatatom 1009 234 5 0 0 0 - - -;
#X obj 1098 312 bng 15 250 50 0 empty empty empty 17 7 0 10 -262144
-1 -1;
#N canvas 4 62 768 301 rand_freq 0;
#X obj 111 65 inlet;
#X obj 111 231 outlet;
#X obj 111 206 vs.prepend freq;
#X obj 111 183 list prepend 1;
#X text 210 85 Generates a list of 8 frequencies values. The list is
preceeded by the number of first filter from which set frequencise.
So the list 1 100 200 300 sets frequency 100 Hz in the first filter
\, 200 in the second and 300 in the third.;
#X text 211 207 To set frequencies you have to use the keyword "freq"
;
#X obj 111 132 + 100;
#X obj 111 110 random 3900;
#X obj 111 88 vs.uzi 16;
#X obj 111 156 vs.group 16;
#X connect 0 0 8 0;
#X connect 2 0 1 0;
#X connect 3 0 2 0;
#X connect 6 0 9 0;
#X connect 7 0 6 0;
#X connect 8 0 7 0;
#X connect 9 0 3 0;
#X restore 1098 336 pd rand_freq;
#N canvas 4 62 1008 465 Q_factor 0;
#X obj 125 63 inlet;
#X obj 125 359 outlet;
#X obj 231 281 list prepend 1;
#X obj 231 313 vs.prepend Q;
#X obj 125 171 list prepend 1;
#X obj 125 203 vs.prepend gain;
#X obj 125 107 sqrt;
#X floatatom 125 129 5 0 0 0 - - -;
#X text 312 315 To set frequencies you have to use the keyword "Q"
(strictly uppercase);
#X text 222 204 To set gains you have to use the keyword "gain";
#X text 218 173 set gains starting from first filter;
#X text 324 281 set Q's starting from first filter;
#X text 158 108 gain is square root of Q factor;
#X obj 125 149 vs.repeat 16;
#X obj 231 259 vs.repeat 16;
#X connect 0 0 6 0;
#X connect 0 0 14 0;
#X connect 2 0 3 0;
#X connect 3 0 1 0;
#X connect 4 0 5 0;
#X connect 5 0 1 0;
#X connect 6 0 7 0;
#X connect 7 0 13 0;
#X connect 13 0 4 0;
#X connect 14 0 2 0;
#X restore 1009 262 pd Q_factor;
#X obj 912 334 noise~;
#X floatatom 1314 251 5 0 0 0 - - -;
#X obj 1403 329 bng 15 250 50 0 empty empty empty 17 7 0 10 -262144
-1 -1;
#N canvas 4 62 768 301 rand_freq 0;
#X obj 111 65 inlet;
#X obj 111 231 outlet;
#X obj 111 206 vs.prepend freq;
#X obj 111 183 list prepend 1;
#X text 210 85 Generates a list of 8 frequencies values. The list is
preceeded by the number of first filter from which set frequencise.
So the list 1 100 200 300 sets frequency 100 Hz in the first filter
\, 200 in the second and 300 in the third.;
#X text 211 207 To set frequencies you have to use the keyword "freq"
;
#X obj 111 132 + 100;
#X obj 111 110 random 3900;
#X obj 111 88 vs.uzi 16;
#X obj 111 156 vs.group 16;
#X connect 0 0 8 0;
#X connect 2 0 1 0;
#X connect 3 0 2 0;
#X connect 6 0 9 0;
#X connect 7 0 6 0;
#X connect 8 0 7 0;
#X connect 9 0 3 0;
#X restore 1403 353 pd rand_freq;
#N canvas 4 62 1008 465 Q_factor 0;
#X obj 125 63 inlet;
#X obj 125 359 outlet;
#X obj 231 281 list prepend 1;
#X obj 231 313 vs.prepend Q;
#X obj 125 171 list prepend 1;
#X obj 125 203 vs.prepend gain;
#X obj 125 107 sqrt;
#X floatatom 125 129 5 0 0 0 - - -;
#X text 312 315 To set frequencies you have to use the keyword "Q"
(strictly uppercase);
#X text 222 204 To set gains you have to use the keyword "gain";
#X text 218 173 set gains starting from first filter;
#X text 324 281 set Q's starting from first filter;
#X text 158 108 gain is square root of Q factor;
#X obj 125 149 vs.repeat 16;
#X obj 231 259 vs.repeat 16;
#X connect 0 0 6 0;
#X connect 0 0 14 0;
#X connect 2 0 3 0;
#X connect 3 0 1 0;
#X connect 4 0 5 0;
#X connect 5 0 1 0;
#X connect 6 0 7 0;
#X connect 7 0 13 0;
#X connect 13 0 4 0;
#X connect 14 0 2 0;
#X restore 1314 279 pd Q_factor;
#X obj 1183 107 metro 8000;
#X obj 1195 53 tgl 15 0 empty empty empty 17 7 0 10 -262144 -1 -1 0
1;
#X obj 1183 132 tgl 15 0 empty empty empty 17 7 0 10 -262144 -1 -1
1 1;
#X obj 1283 169 sel 1 0;
#X obj 1227 569 vline~;
#X msg 1225 530 \$1 50;
#X obj 857 468 *~;
#X obj 1160 448 *~;
#X obj 890 470 vline~;
#X obj 1183 152 vs.!- 1;
#X obj 1195 474 vline~;
#X obj 855 406 vs.filterbank~ 16 40 1.5 1000 10;
#X obj 1160 423 vs.filterbank~ 16 40 1.5 1000 10;
#X msg 890 445 \$1 8000;
#X msg 1195 449 \$1 8000;
#X obj 1103 731 osc~;
#X obj 1093 661 *~ 1000;
#X obj 1093 686 samphold~;
#X obj 1103 756 *~ 0.1;
#X obj 1097 795 dac~;
#X obj 1093 636 phasor~ 9.33;
#X obj 1161 661 phasor~ 17;
#X connect 0 0 3 0;
#X connect 0 0 6 0;
#X connect 0 0 29 0;
#X connect 0 0 24 0;
#X connect 1 0 2 0;
#X connect 2 0 20 1;
#X connect 3 0 20 1;
#X connect 5 0 21 0;
#X connect 5 0 20 0;
#X connect 6 0 9 0;
#X connect 7 0 8 0;
#X connect 8 0 21 1;
#X connect 9 0 21 1;
#X connect 10 0 12 0;
#X connect 11 0 10 0;
#X connect 11 0 33 0;
#X connect 12 0 13 0;
#X connect 12 0 22 0;
#X connect 12 0 18 0;
#X connect 13 0 1 0;
#X connect 13 1 7 0;
#X connect 14 0 4 0;
#X connect 14 1 4 1;
#X connect 15 0 14 0;
#X connect 16 0 14 0;
#X connect 17 0 15 1;
#X connect 18 0 23 0;
#X connect 19 0 16 1;
#X connect 20 0 15 0;
#X connect 21 0 16 0;
#X connect 22 0 17 0;
#X connect 23 0 19 0;
#X connect 24 0 27 0;
#X connect 25 0 26 0;
#X connect 26 0 44 1;
#X connect 27 0 44 1;
#X connect 28 0 45 0;
#X connect 28 0 44 0;
#X connect 29 0 32 0;
#X connect 30 0 31 0;
#X connect 31 0 45 1;
#X connect 32 0 45 1;
#X connect 33 0 35 0;
#X connect 34 0 33 0;
#X connect 35 0 36 0;
#X connect 35 0 46 0;
#X connect 35 0 42 0;
#X connect 36 0 25 0;
#X connect 36 1 30 0;
#X connect 39 0 14 1;
#X connect 40 0 14 1;
#X connect 41 0 39 1;
#X connect 42 0 47 0;
#X connect 43 0 40 1;
#X connect 44 0 39 0;
#X connect 45 0 40 0;
#X connect 46 0 41 0;
#X connect 47 0 43 0;
#X connect 48 0 51 0;
#X connect 49 0 50 0;
#X connect 50 0 48 0;
#X connect 53 0 49 0;
#X connect 54 0 50 1;
