#N canvas 544 261 1244 788 12;
#X obj 217 171 vs.blsaw~;
#X floatatom 211 102 5 0 0 0 - - -;
#X obj 217 220 *~ 0.25;
#X obj 292 172 vs.blsaw~;
#X obj 257 141 * 1.00065;
#X obj 386 171 vs.blsaw~;
#X obj 351 140 * 1.00067;
#X obj 217 245 hip~ 100;
#X obj 217 270 hip~ 100;
#X obj 294 250 *~ 0.5;
#X obj 294 325 +~ 1;
#X obj 294 350 *~ 80;
#X obj 294 375 +~ 80;
#X obj 294 300 *~ 16;
#X obj 567 127 vs.blsaw~;
#X floatatom 561 58 5 0 0 0 - - -;
#X obj 567 176 *~ 0.25;
#X obj 642 128 vs.blsaw~;
#X obj 607 97 * 1.00065;
#X obj 736 127 vs.blsaw~;
#X obj 701 96 * 1.00067;
#X obj 567 201 hip~ 100;
#X obj 567 226 hip~ 100;
#X obj 633 201 *~ 0.5;
#X obj 633 276 +~ 1;
#X obj 633 301 *~ 80;
#X obj 633 326 +~ 80;
#X obj 633 251 *~ 16;
#X obj 294 275 +~ 0.5;
#X obj 633 226 +~ 0.5;
#X obj 821 202 vs.blsaw~;
#X floatatom 815 133 5 0 0 0 - - -;
#X obj 821 251 *~ 0.25;
#X obj 896 203 vs.blsaw~;
#X obj 861 172 * 1.00065;
#X obj 990 202 vs.blsaw~;
#X obj 955 171 * 1.00067;
#X obj 821 276 hip~ 100;
#X obj 821 301 hip~ 100;
#X obj 887 276 *~ 0.5;
#X obj 887 351 +~ 1;
#X obj 887 376 *~ 80;
#X obj 887 401 +~ 80;
#X obj 887 326 *~ 16;
#X obj 887 301 +~ 0.5;
#X obj 244 525 vs.blsaw~;
#X floatatom 238 456 5 0 0 0 - - -;
#X obj 244 574 *~ 0.25;
#X obj 319 526 vs.blsaw~;
#X obj 284 495 * 1.00065;
#X obj 413 525 vs.blsaw~;
#X obj 378 494 * 1.00067;
#X obj 244 599 hip~ 100;
#X obj 244 624 hip~ 100;
#X obj 310 599 *~ 0.5;
#X obj 310 674 +~ 1;
#X obj 310 699 *~ 80;
#X obj 310 724 +~ 80;
#X obj 310 649 *~ 16;
#X obj 310 624 +~ 0.5;
#X obj 294 225 vs.rand2~ 0.1;
#X obj 633 176 vs.rand2~ 0.1;
#X obj 887 251 vs.rand2~ 0.1;
#X obj 310 575 vs.rand2~ 0.1;
#X obj 533 462 vs.pan~;
#X obj 604 538 dac~;
#X obj 610 460 vs.pan~;
#X obj 676 461 vs.pan~;
#X obj 741 462 vs.pan~;
#X obj 477 373 hsl 128 15 0 1 0 0 empty empty empty -2 -8 0 10 -262144
-1 -1 0 1;
#X obj 614 407 hsl 128 15 0 1 0 0 empty empty empty -2 -8 0 10 -262144
-1 -1 3600 1;
#X obj 676 377 hsl 128 15 0 1 0 0 empty empty empty -2 -8 0 10 -262144
-1 -1 9000 1;
#X obj 765 429 hsl 128 15 0 1 0 0 empty empty empty -2 -8 0 10 -262144
-1 -1 12700 1;
#X obj 217 295 vcf~ 100;
#X obj 567 251 vcf~ 100;
#X obj 822 326 vcf~ 100;
#X obj 244 649 vcf~ 100;
#X obj 217 320 *~ 10;
#X obj 567 276 *~ 10;
#X obj 821 351 *~ 10;
#X obj 245 675 *~ 10;
#X connect 0 0 2 0;
#X connect 1 0 4 0;
#X connect 1 0 6 0;
#X connect 1 0 15 0;
#X connect 1 0 31 0;
#X connect 1 0 46 0;
#X connect 1 0 11 1;
#X connect 1 0 12 1;
#X connect 1 0 0 0;
#X connect 2 0 7 0;
#X connect 3 0 2 0;
#X connect 4 0 3 0;
#X connect 5 0 2 0;
#X connect 6 0 5 0;
#X connect 7 0 8 0;
#X connect 8 0 73 0;
#X connect 9 0 28 0;
#X connect 10 0 11 0;
#X connect 11 0 12 0;
#X connect 12 0 73 1;
#X connect 13 0 10 0;
#X connect 14 0 16 0;
#X connect 15 0 14 0;
#X connect 15 0 18 0;
#X connect 15 0 20 0;
#X connect 15 0 25 1;
#X connect 15 0 26 1;
#X connect 16 0 21 0;
#X connect 17 0 16 0;
#X connect 18 0 17 0;
#X connect 19 0 16 0;
#X connect 20 0 19 0;
#X connect 21 0 22 0;
#X connect 22 0 74 0;
#X connect 23 0 29 0;
#X connect 24 0 25 0;
#X connect 25 0 26 0;
#X connect 26 0 74 1;
#X connect 27 0 24 0;
#X connect 28 0 13 0;
#X connect 29 0 27 0;
#X connect 30 0 32 0;
#X connect 31 0 30 0;
#X connect 31 0 34 0;
#X connect 31 0 36 0;
#X connect 32 0 37 0;
#X connect 33 0 32 0;
#X connect 34 0 33 0;
#X connect 35 0 32 0;
#X connect 36 0 35 0;
#X connect 37 0 38 0;
#X connect 38 0 75 0;
#X connect 39 0 44 0;
#X connect 40 0 41 0;
#X connect 41 0 42 0;
#X connect 42 0 75 1;
#X connect 43 0 40 0;
#X connect 44 0 43 0;
#X connect 45 0 47 0;
#X connect 46 0 45 0;
#X connect 46 0 49 0;
#X connect 46 0 51 0;
#X connect 46 0 56 1;
#X connect 46 0 57 1;
#X connect 47 0 52 0;
#X connect 48 0 47 0;
#X connect 49 0 48 0;
#X connect 50 0 47 0;
#X connect 51 0 50 0;
#X connect 52 0 53 0;
#X connect 53 0 76 0;
#X connect 54 0 59 0;
#X connect 55 0 56 0;
#X connect 56 0 57 0;
#X connect 57 0 76 1;
#X connect 58 0 55 0;
#X connect 59 0 58 0;
#X connect 60 0 9 0;
#X connect 61 0 23 0;
#X connect 62 0 39 0;
#X connect 63 0 54 0;
#X connect 64 0 65 0;
#X connect 64 1 65 1;
#X connect 66 0 65 0;
#X connect 66 1 65 1;
#X connect 67 0 65 0;
#X connect 67 1 65 1;
#X connect 68 0 65 0;
#X connect 68 1 65 1;
#X connect 69 0 64 1;
#X connect 70 0 66 1;
#X connect 71 0 67 1;
#X connect 72 0 68 1;
#X connect 73 0 77 0;
#X connect 74 0 78 0;
#X connect 75 0 79 0;
#X connect 76 0 80 0;
#X connect 77 0 64 0;
#X connect 78 0 66 0;
#X connect 79 0 67 0;
#X connect 80 0 68 0;
