#N canvas 298 62 1523 961 16;
#X obj 142 478 vs.pan~;
#X obj 209 445 sig~ 0;
#X obj 279 482 vs.pan~;
#X obj 402 484 vs.pan~;
#X obj 539 488 vs.pan~;
#X obj 680 492 vs.pan~;
#X obj 817 496 vs.pan~;
#X obj 346 449 sig~ 0.2;
#X obj 469 451 sig~ 0.4;
#X obj 606 455 sig~ 0.6;
#X obj 747 459 sig~ 0.8;
#X obj 884 463 sig~ 1;
#X obj 512 809 dac~;
#X msg 729 161 0;
#X floatatom 1206 443 5 0 0 0 - - -;
#X obj 1177 548 * 1.618;
#X floatatom 1149 702 5 0 0 0 - - -;
#X obj 1105 496 until;
#X obj 1107 546 f 400;
#X obj 1129 645 vs.group 6;
#X obj 1129 674 print;
#X floatatom 902 661 5 0 0 0 - - -;
#X obj 902 689 mtof;
#X obj 902 718 print;
#X obj 1052 673 + 60;
#X obj 1052 702 mtof;
#X obj 136 277 insideocchi~ 1 277.183;
#X text 134 204 phasor_frq osc_frq stereo_pos;
#X msg 1105 467 6;
#X obj 1107 575 print;
#X obj 268 316 insideocchi~ 1.008 287.256;
#X obj 498 271 insideocchi~ 1.016 304.336;
#X obj 672 326 insideocchi~ 1.024 334.148;
#X obj 874 272 insideocchi~ 1.032 388.693;
#X obj 1014 321 insideocchi~ 1.04 496.429;
#X connect 0 0 12 0;
#X connect 0 1 12 1;
#X connect 1 0 0 1;
#X connect 2 0 12 0;
#X connect 2 1 12 1;
#X connect 3 0 12 0;
#X connect 3 1 12 1;
#X connect 4 0 12 0;
#X connect 4 1 12 1;
#X connect 5 0 12 0;
#X connect 5 1 12 1;
#X connect 6 0 12 0;
#X connect 6 1 12 1;
#X connect 7 0 2 1;
#X connect 8 0 3 1;
#X connect 9 0 4 1;
#X connect 10 0 5 1;
#X connect 11 0 6 1;
#X connect 13 0 26 0;
#X connect 13 0 30 0;
#X connect 13 0 31 0;
#X connect 13 0 32 0;
#X connect 13 0 33 0;
#X connect 13 0 34 0;
#X connect 14 0 18 1;
#X connect 15 0 18 1;
#X connect 17 0 18 0;
#X connect 18 0 15 0;
#X connect 18 0 29 0;
#X connect 19 0 20 0;
#X connect 21 0 22 0;
#X connect 22 0 23 0;
#X connect 24 0 25 0;
#X connect 25 0 20 0;
#X connect 26 0 0 0;
#X connect 28 0 17 0;
#X connect 30 0 2 0;
#X connect 31 0 3 0;
#X connect 32 0 4 0;
#X connect 33 0 5 0;
#X connect 34 0 6 0;
