#N canvas 334 198 1272 654 12;
#X obj 148 336 unpack 0 0 0, f 19;
#X obj 147 58 metro 1000;
#X msg 148 316 \$1 1 \$2;
#X obj 264 150 + 1;
#X obj 148 293 pack 0 0;
#X obj 148 133 t b b;
#X obj 145 438 vs.gain~;
#X obj 145 550 dac~;
#X obj 147 31 tgl 15 0 empty empty empty 17 7 0 10 -262144 -1 -1 1
1;
#X msg 284 340 clear;
#X obj 227 150 f 1;
#X obj 264 172 % 4;
#X obj 264 194 + 1;
#X floatatom 264 216 5 0 0 0 - - -;
#X obj 676 215 array define scale 7;
#X obj 676 296 array set scale;
#X msg 676 271 0 2 4 5 7 9 11;
#X obj 656 401 t f f;
#X obj 656 426 % 7;
#X obj 656 451 tabread scale;
#X obj 758 452 div 7;
#X obj 758 477 * 12;
#X obj 656 476 +;
#X obj 656 501 + 48;
#X obj 656 526 mtof;
#X obj 316 45 random 3;
#X obj 316 70 + 1;
#X obj 316 95 * 500;
#X obj 148 362 vs.oscbank~ 4 5 5;
#X obj 149 396 clip~ -1 1;
#X obj 656 376 vs.xrandom 15;
#X obj 977 143 netreceive -b -u 9000;
#X obj 977 168 oscparse;
#X obj 977 193 list trim;
#X obj 977 320 list fromsymbol;
#X obj 977 345 list split 5;
#X obj 977 375 list tosymbol;
#X obj 977 400 list trim;
#X obj 977 254 route name;
#X obj 977 279 symbol;
#X obj 977 229 route lastmarker lastregion;
#X obj 977 425 route marka black track, f 30;
#X obj 977 465 s banga;
#X obj 148 93 r banga;
#X connect 0 0 28 0;
#X connect 0 1 28 1;
#X connect 0 2 28 2;
#X connect 1 0 25 0;
#X connect 2 0 0 0;
#X connect 3 0 10 1;
#X connect 3 0 11 0;
#X connect 4 0 2 0;
#X connect 5 0 30 0;
#X connect 5 1 10 0;
#X connect 6 0 7 0;
#X connect 6 0 7 1;
#X connect 8 0 1 0;
#X connect 9 0 28 0;
#X connect 10 0 3 0;
#X connect 11 0 12 0;
#X connect 12 0 13 0;
#X connect 13 0 4 1;
#X connect 16 0 15 0;
#X connect 17 0 18 0;
#X connect 17 1 20 0;
#X connect 18 0 19 0;
#X connect 19 0 22 0;
#X connect 20 0 21 0;
#X connect 21 0 22 1;
#X connect 22 0 23 0;
#X connect 23 0 24 0;
#X connect 24 0 4 0;
#X connect 25 0 26 0;
#X connect 26 0 27 0;
#X connect 27 0 1 1;
#X connect 28 0 29 0;
#X connect 29 0 6 0;
#X connect 30 0 17 0;
#X connect 31 0 32 0;
#X connect 32 0 33 0;
#X connect 33 0 40 0;
#X connect 34 0 35 0;
#X connect 35 0 36 0;
#X connect 36 0 37 0;
#X connect 37 0 41 0;
#X connect 38 0 39 0;
#X connect 39 0 34 0;
#X connect 40 0 38 0;
#X connect 40 1 38 0;
#X connect 41 0 42 0;
#X connect 41 1 42 0;
#X connect 41 2 42 0;
#X connect 43 0 5 0;
