#N canvas 642 311 890 702 12;
#X obj 131 197 gocce_inside 400 400;
#X obj 181 254 gocce_inside 1047.17 1047.17;
#X obj 204 283 gocce_inside 1694.32 1694.32;
#X obj 232 313 gocce_inside 2741.41 2741.41;
#X obj 255 342 gocce_inside 4435.6 4435.6;
#X obj 155 225 gocce_inside 647.2 647.2;
#X obj 176 44 tgl 15 0 empty empty empty 17 7 0 10 -262144 -1 -1 0
1;
#X obj 582 287 bng 15 250 50 0 empty empty empty 17 7 0 10 -262144
-1 -1;
#X obj 582 307 f 400;
#X obj 650 341 * 1.618;
#X obj 582 332 print;
#X obj 279 373 gocce_inside 7176.81 7176.81;
#X obj 160 477 *~ 1;
#X obj 316 475 *~ 1;
#X obj 160 502 delwrite~ sx 1000;
#X obj 412 489 delwrite~ dx 1000;
#X obj 284 647 dac~;
#X obj 172 544 delread~ sx 600;
#X obj 424 531 delread~ dx 600;
#X obj 501 150 gocce_inside 400 400;
#X obj 509 98 tgl 15 0 empty empty empty 17 7 0 10 -262144 -1 -1 0
1;
#X obj 680 492 vs.triangle~;
#X obj 424 556 *~ 0.1;
#X obj 172 569 *~ 0.1;
#X connect 0 0 12 0;
#X connect 0 1 13 0;
#X connect 1 0 12 0;
#X connect 1 1 13 0;
#X connect 2 0 12 0;
#X connect 2 1 13 0;
#X connect 3 0 12 0;
#X connect 3 1 13 0;
#X connect 4 0 12 0;
#X connect 4 1 13 0;
#X connect 5 0 12 0;
#X connect 5 1 13 0;
#X connect 6 0 0 0;
#X connect 6 0 11 0;
#X connect 6 0 5 0;
#X connect 6 0 4 0;
#X connect 6 0 3 0;
#X connect 6 0 2 0;
#X connect 6 0 1 0;
#X connect 7 0 8 0;
#X connect 8 0 9 0;
#X connect 8 0 10 0;
#X connect 9 0 8 1;
#X connect 11 0 12 0;
#X connect 11 1 13 0;
#X connect 12 0 14 0;
#X connect 12 0 16 0;
#X connect 13 0 15 0;
#X connect 13 0 16 1;
#X connect 17 0 23 0;
#X connect 18 0 22 0;
#X connect 19 0 16 0;
#X connect 19 1 16 1;
#X connect 20 0 19 0;
#X connect 22 0 15 0;
#X connect 22 0 16 1;
#X connect 23 0 14 0;
#X connect 23 0 16 0;
