#N canvas 410 268 1328 681 16;
#X obj 21 19 netreceive -b -u 9000;
#X obj 21 54 oscparse;
#X obj 21 83 list trim;
#X obj 21 148 route name;
#X obj 21 177 route mbuto;
#X obj 21 206 print;
#X obj 21 112 route lastregion;
#X obj 462 419 osc~;
#X obj 462 89 osc~;
#X obj 460 247 +~;
#X obj 461 172 *~;
#X obj 677 150 osc~;
#X obj 677 224 *~;
#X floatatom 462 46 5 0 0 0 - - -;
#X floatatom 677 111 5 0 0 0 - - -;
#X obj 462 497 dac~;
#X obj 460 303 +~;
#X obj 916 209 osc~;
#X obj 916 278 *~;
#X floatatom 916 173 5 0 0 0 - - -;
#X text 18 243 I = D / Fm;
#X obj 461 357 +~ 80;
#X obj 283 276 osc~;
#X obj 584 228 *~;
#X obj 628 154 tgl 15 0 empty empty empty 17 7 0 10 -262144 -1 -1 1
1;
#X obj 773 279 *~;
#X obj 839 248 tgl 15 0 empty empty empty 17 7 0 10 -262144 -1 -1 1
1;
#X floatatom 524 358 5 0 0 0 - - -;
#X obj 663 420 osc~;
#X obj 663 498 dac~;
#X obj 662 358 +~ 80;
#X floatatom 725 359 5 0 0 0 - - -;
#X obj 461 211 *~;
#X obj 532 196 tgl 15 0 empty empty empty 17 7 0 10 -262144 -1 -1 1
1;
#X obj 116 594 +~ 320;
#X obj 116 565 *~ 640;
#X obj 520 132 *~ 320;
#X obj 742 154 *~ 640.2;
#X obj 973 255 *~ 1280;
#X obj 462 448 *~ 0.1;
#X obj 663 449 *~ 0.1;
#X obj 742 67 *~ 1;
#X obj 743 96 +~ 0;
#X obj 519 45 *~ 1;
#X obj 520 74 +~ 0;
#X obj 973 168 *~ 1;
#X obj 973 197 +~ 0;
#X obj 628 174 t b;
#X obj 628 203 f 0;
#X obj 839 299 t b;
#X obj 839 328 f 0;
#X obj 244 128 expr~ pow(1 - $v1 \, 2);
#X obj 815 85 expr~ pow(1 - $v1 \, 2);
#X obj 1038 134 expr~ pow(1 - $v1 \, 2);
#X obj 973 226 *~ 4;
#X obj 742 125 *~ 4;
#X obj 520 103 *~ 4;
#X obj 244 99 phasor~ 0.05;
#X obj 815 56 phasor~ 0.051;
#X obj 1038 105 phasor~ 0.053;
#X connect 0 0 1 0;
#X connect 1 0 2 0;
#X connect 2 0 6 0;
#X connect 3 0 4 0;
#X connect 4 0 5 0;
#X connect 6 0 3 0;
#X connect 7 0 39 0;
#X connect 8 0 10 0;
#X connect 9 0 16 0;
#X connect 10 0 32 0;
#X connect 11 0 12 0;
#X connect 12 0 23 0;
#X connect 13 0 8 0;
#X connect 13 0 36 1;
#X connect 14 0 11 0;
#X connect 14 0 37 1;
#X connect 16 0 21 0;
#X connect 16 0 30 0;
#X connect 17 0 18 0;
#X connect 18 0 25 0;
#X connect 19 0 17 0;
#X connect 19 0 38 1;
#X connect 21 0 7 0;
#X connect 23 0 9 1;
#X connect 24 0 23 1;
#X connect 24 0 47 0;
#X connect 25 0 16 1;
#X connect 26 0 25 1;
#X connect 26 0 49 0;
#X connect 27 0 21 1;
#X connect 28 0 40 0;
#X connect 30 0 28 0;
#X connect 31 0 30 1;
#X connect 32 0 9 0;
#X connect 33 0 32 1;
#X connect 35 0 34 0;
#X connect 36 0 10 1;
#X connect 37 0 12 1;
#X connect 38 0 18 1;
#X connect 39 0 15 0;
#X connect 40 0 29 1;
#X connect 41 0 42 0;
#X connect 42 0 55 0;
#X connect 43 0 44 0;
#X connect 44 0 56 0;
#X connect 45 0 46 0;
#X connect 46 0 54 0;
#X connect 47 0 48 0;
#X connect 48 0 58 1;
#X connect 49 0 50 0;
#X connect 50 0 59 1;
#X connect 51 0 43 0;
#X connect 52 0 41 0;
#X connect 53 0 45 0;
#X connect 54 0 38 0;
#X connect 55 0 37 0;
#X connect 56 0 36 0;
#X connect 57 0 51 0;
#X connect 58 0 52 0;
#X connect 59 0 53 0;
