#N canvas 337 239 1317 753 12;
#X obj 187 643 dac~;
#X floatatom 144 79 5 0 0 0 - - -;
#X obj 144 235 osc~;
#X obj 143 274 *~;
#X obj 214 220 *~;
#X obj 145 368 osc~;
#X obj 151 496 *~ 0.25;
#X obj 145 393 *~;
#X obj 289 346 vline~;
#X obj 232 190 vline~;
#X obj 289 132 bng 15 250 50 0 empty empty empty 17 7 0 10 -262144
-1 -1;
#X obj 289 88 metro 125;
#X obj 289 39 tgl 15 0 empty empty empty 17 7 0 10 -262144 -1 -1 0
1;
#X obj 220 548 *~;
#X obj 152 547 *~;
#X obj 246 480 tgl 15 0 empty empty empty 17 7 0 10 -262144 -1 -1 1
1;
#X obj 246 500 vs.!- 1;
#X obj 143 299 +~;
#X obj 329 218 osc~;
#X obj 328 257 *~;
#X floatatom 378 55 5 0 0 0 - - -;
#X obj 145 335 +~;
#X obj 670 459 tabwrite seq;
#X obj 644 325 t b f;
#X obj 648 246 bng 15 250 50 0 empty empty empty 17 7 0 10 -262144
-1 -1;
#X obj 469 157 tabread seq;
#X floatatom 469 182 5 0 0 0 - - -;
#X obj 644 385 + 1;
#X obj 644 410 * 40;
#X obj 399 203 *~ 4;
#X obj 643 290 vs.uzi 16;
#X obj 483 73 array define seq 16;
#X obj 469 132 vs.counter 0 15;
#X msg 232 162 12 \, 4 125;
#X msg 289 317 1 \, 0 150;
#X obj 168 424 delwrite~ mono 1000;
#X obj 271 554 delread~ mono 125;
#X obj 271 579 *~ 0.5;
#X obj 644 360 vs.xrandom 8;
#X connect 1 0 2 0;
#X connect 1 0 4 0;
#X connect 1 0 18 0;
#X connect 1 0 29 0;
#X connect 2 0 3 0;
#X connect 3 0 17 0;
#X connect 4 0 3 1;
#X connect 5 0 7 0;
#X connect 6 0 13 0;
#X connect 6 0 14 0;
#X connect 6 0 35 0;
#X connect 7 0 6 0;
#X connect 8 0 7 1;
#X connect 9 0 4 1;
#X connect 10 0 33 0;
#X connect 10 0 34 0;
#X connect 11 0 10 0;
#X connect 11 0 15 0;
#X connect 11 0 32 0;
#X connect 12 0 11 0;
#X connect 13 0 0 1;
#X connect 14 0 0 0;
#X connect 15 0 14 1;
#X connect 15 0 16 0;
#X connect 16 0 13 1;
#X connect 17 0 21 0;
#X connect 18 0 19 0;
#X connect 19 0 17 1;
#X connect 20 0 11 1;
#X connect 21 0 5 0;
#X connect 23 0 38 0;
#X connect 23 1 22 1;
#X connect 24 0 30 0;
#X connect 25 0 26 0;
#X connect 26 0 1 0;
#X connect 27 0 28 0;
#X connect 28 0 22 0;
#X connect 29 0 19 1;
#X connect 30 2 23 0;
#X connect 32 0 25 0;
#X connect 33 0 9 0;
#X connect 34 0 8 0;
#X connect 36 0 37 0;
#X connect 38 0 27 0;
