#N canvas 438 136 1318 822 16;
#X obj 181 534 osc~;
#X obj 238 232 +~;
#X obj 239 137 *~;
#X obj 181 612 dac~;
#X obj 179 418 +~;
#X obj 180 472 +~ 80;
#X floatatom 243 473 5 0 0 0 - - -;
#X obj 239 176 *~;
#X obj 288 170 *~ 320;
#X obj 181 563 *~ 0.1;
#X obj 287 110 expr~ pow(1 - $v1 \, 4);
#X obj 288 141 *~ 12;
#X obj 240 54 osc~ 500;
#X floatatom 343 36 5 0 0 0 - - -;
#X obj 364 182 samphold~;
#X obj 349 141 noise~;
#X obj 364 211 expr~ $v1 > 0;
#X obj 519 418 *~;
#X obj 540 479 *~;
#X obj 590 442 tgl 15 0 empty empty empty 17 7 0 10 -262144 -1 -1 0
1;
#X obj 576 304 *~ 320;
#X obj 575 244 expr~ pow(1 - $v1 \, 4);
#X obj 520 335 osc~ 500;
#X floatatom 520 293 5 0 0 0 - - -;
#X obj 636 338 samphold~;
#X obj 637 275 noise~;
#X obj 636 367 expr~ $v1 > 0;
#X obj 576 275 *~ 8;
#X obj 750 543 *~;
#X obj 771 604 *~;
#X obj 821 567 tgl 15 0 empty empty empty 17 7 0 10 -262144 -1 -1 0
1;
#X obj 807 429 *~ 320;
#X obj 806 369 expr~ pow(1 - $v1 \, 4);
#X obj 751 460 osc~ 500;
#X floatatom 751 418 5 0 0 0 - - -;
#X obj 867 463 samphold~;
#X obj 868 400 noise~;
#X obj 867 492 expr~ $v1 > 0;
#X msg 811 136 0;
#X obj 807 400 *~ 8;
#X obj 375 66 phasor~ 4;
#X obj 723 303 phasor~ 4;
#X obj 954 428 phasor~ 4;
#X floatatom 976 176 5 0 0 0 - - -;
#X connect 0 0 9 0;
#X connect 1 0 4 0;
#X connect 2 0 7 0;
#X connect 4 0 5 0;
#X connect 5 0 0 0;
#X connect 6 0 5 1;
#X connect 7 0 1 0;
#X connect 8 0 2 1;
#X connect 9 0 3 0;
#X connect 9 0 3 1;
#X connect 10 0 11 0;
#X connect 11 0 8 0;
#X connect 12 0 2 0;
#X connect 13 0 12 0;
#X connect 13 0 8 1;
#X connect 14 0 16 0;
#X connect 15 0 14 0;
#X connect 16 0 7 1;
#X connect 17 0 18 0;
#X connect 18 0 1 1;
#X connect 19 0 18 1;
#X connect 20 0 17 1;
#X connect 21 0 27 0;
#X connect 22 0 17 0;
#X connect 23 0 22 0;
#X connect 23 0 20 1;
#X connect 24 0 26 0;
#X connect 25 0 24 0;
#X connect 26 0 18 1;
#X connect 27 0 20 0;
#X connect 28 0 29 0;
#X connect 29 0 4 1;
#X connect 30 0 29 1;
#X connect 31 0 28 1;
#X connect 32 0 39 0;
#X connect 33 0 28 0;
#X connect 34 0 33 0;
#X connect 34 0 31 1;
#X connect 35 0 37 0;
#X connect 36 0 35 0;
#X connect 37 0 29 1;
#X connect 38 0 40 1;
#X connect 38 0 41 1;
#X connect 38 0 42 1;
#X connect 39 0 31 0;
#X connect 40 0 10 0;
#X connect 40 0 14 1;
#X connect 41 0 21 0;
#X connect 41 0 24 1;
#X connect 42 0 32 0;
#X connect 42 0 35 1;
#X connect 43 0 40 0;
#X connect 43 0 41 0;
#X connect 43 0 42 0;
