#N canvas 641 233 932 816 16;
#X obj 67 128 noise~;
#X obj 173 578 dac~;
#X obj 695 211 noise~;
#X obj 649 326 samphold~;
#X obj 649 355 abs~;
#X obj 491 380 *~;
#X obj 499 251 *~;
#X obj 194 275 samphold~;
#X obj 194 304 abs~;
#X obj 67 286 *~;
#X obj 158 177 *~;
#X obj 81 478 *~ 35;
#X obj 468 435 *~ 35;
#X obj 67 219 expr~ $v1 > $v2;
#X obj 438 280 expr~ $v1 > $v2;
#X obj 453 626 vline~;
#X msg 453 597 1 \, 0.9995 60000;
#X obj 630 72 *~ 0.5;
#X obj 630 101 +~ 0.5;
#X obj 630 159 +~ 0.9995;
#X obj 630 130 *~ 0.0005;
#X obj 630 43 vs.rand0~ 0.25;
#X floatatom 358 407 5 0 0 0 - - -;
#X obj 313 146 sig~ 8000;
#X obj 67 257 vcf~ 90;
#X obj 438 318 vcf~ 90;
#X connect 0 0 7 0;
#X connect 0 0 13 0;
#X connect 2 0 3 0;
#X connect 2 0 14 0;
#X connect 3 0 4 0;
#X connect 4 0 5 1;
#X connect 4 0 6 1;
#X connect 5 0 12 0;
#X connect 6 0 25 1;
#X connect 7 0 8 0;
#X connect 8 0 9 1;
#X connect 8 0 10 1;
#X connect 9 0 11 0;
#X connect 10 0 24 1;
#X connect 11 0 1 0;
#X connect 12 0 1 1;
#X connect 13 0 7 1;
#X connect 13 0 24 0;
#X connect 14 0 3 1;
#X connect 14 0 25 0;
#X connect 16 0 15 0;
#X connect 17 0 18 0;
#X connect 18 0 20 0;
#X connect 19 0 14 1;
#X connect 19 0 13 1;
#X connect 20 0 19 0;
#X connect 21 0 17 0;
#X connect 22 0 24 2;
#X connect 22 0 25 2;
#X connect 23 0 10 0;
#X connect 23 0 6 0;
#X connect 24 0 9 0;
#X connect 25 0 5 0;
