#N canvas 332 288 1344 778 16;
#X obj 152 79 osc~;
#X obj 152 118 *~;
#X obj 152 177 +~;
#X obj 237 301 osc~;
#X obj 237 330 *~ 0.1;
#X obj 807 414 dac~;
#X floatatom 223 154 5 0 0 1 carrier_frq - -;
#X floatatom 152 18 5 0 0 1 mod_frq - -;
#X obj 239 95 *~;
#X floatatom 303 23 5 0 0 1 idx - -;
#X obj 393 85 osc~;
#X obj 393 124 *~;
#X obj 393 183 +~;
#X floatatom 517 160 0 0 0 1 carrier_frq - -;
#X floatatom 393 24 0 0 0 1 mod_frq - -;
#X obj 480 101 *~;
#X obj 517 195 * 8;
#X obj 223 182 * 8;
#X obj 237 238 +~;
#X obj 724 92 osc~;
#X obj 724 131 *~;
#X obj 724 190 +~;
#X obj 808 291 osc~;
#X obj 808 320 *~ 0.1;
#X floatatom 795 167 5 0 0 1 carrier_frq - -;
#X floatatom 724 31 0 0 0 1 mod_frq - -;
#X obj 811 108 *~;
#X floatatom 875 36 5 0 0 1 idx - -;
#X obj 965 98 osc~;
#X obj 965 137 *~;
#X obj 965 196 +~;
#X floatatom 1089 173 0 0 0 1 carrier_frq - -;
#X floatatom 965 37 0 0 0 1 mod_frq - -;
#X obj 1052 114 *~;
#X obj 809 251 +~;
#X obj 237 267 +~ 0;
#X obj 795 195 * 16;
#X obj 1089 208 * 16;
#X connect 0 0 1 0;
#X connect 1 0 2 0;
#X connect 2 0 18 0;
#X connect 3 0 4 0;
#X connect 6 0 2 1;
#X connect 6 0 17 0;
#X connect 7 0 0 0;
#X connect 7 0 8 0;
#X connect 8 0 1 1;
#X connect 9 0 8 1;
#X connect 9 0 15 1;
#X connect 10 0 11 0;
#X connect 11 0 12 0;
#X connect 12 0 18 1;
#X connect 13 0 12 1;
#X connect 13 0 16 0;
#X connect 14 0 10 0;
#X connect 14 0 15 0;
#X connect 15 0 11 1;
#X connect 16 0 14 0;
#X connect 17 0 7 0;
#X connect 18 0 35 0;
#X connect 19 0 20 0;
#X connect 20 0 21 0;
#X connect 21 0 34 0;
#X connect 22 0 23 0;
#X connect 23 0 5 1;
#X connect 23 0 5 0;
#X connect 24 0 21 1;
#X connect 24 0 36 0;
#X connect 25 0 19 0;
#X connect 25 0 26 0;
#X connect 26 0 20 1;
#X connect 27 0 26 1;
#X connect 27 0 33 1;
#X connect 28 0 29 0;
#X connect 29 0 30 0;
#X connect 30 0 34 1;
#X connect 31 0 30 1;
#X connect 31 0 37 0;
#X connect 32 0 28 0;
#X connect 32 0 33 0;
#X connect 33 0 29 1;
#X connect 34 0 22 0;
#X connect 35 0 3 0;
#X connect 36 0 25 0;
#X connect 37 0 32 0;
