#N canvas 151 62 1319 928 16;
#X obj 75 109 array define scale 7;
#X obj 86 54 array set scale;
#X obj 884 61 until;
#X msg 884 21 16;
#X obj 884 119 t f f;
#X obj 870 152 % 7;
#X obj 870 231 +;
#X obj 1010 173 div 7;
#X obj 1010 202 * 12;
#X obj 870 270 vs.group 16;
#X obj 870 334 array set seq;
#X obj 870 299 print;
#X obj 870 181 tabread scale;
#X obj 81 164 array define seq 16;
#X obj 80 415 mtof;
#X obj 80 279 metro 1000;
#X obj 80 308 vs.counter 0 15;
#X obj 263 814 dac~;
#X obj 234 225 tgl 15 0 empty empty empty 17 7 0 10 -262144 -1 -1 0
1;
#X obj 80 337 tabread seq;
#X obj 281 415 mtof;
#X obj 281 308 vs.counter 0 15;
#X obj 281 337 tabread seq;
#X obj 324 194 bng 15 250 50 0 empty empty empty 17 7 0 10 -262144
-1 -1;
#X obj 80 468 vs.bltri~;
#X obj 283 505 vs.bltri~;
#X obj 140 422 * 3;
#X obj 318 453 * 3;
#X obj 80 585 *~ 0.5;
#X obj 282 585 *~ 0.5;
#X obj 80 378 + 36;
#X obj 281 378 + 36;
#X obj 462 442 mtof;
#X obj 462 335 vs.counter 0 15;
#X obj 616 252 tgl 15 0 empty empty empty 17 7 0 10 -262144 -1 -1 1
1;
#X obj 462 364 tabread seq;
#X obj 663 442 mtof;
#X obj 663 335 vs.counter 0 15;
#X obj 663 364 tabread seq;
#X obj 706 221 bng 15 250 50 0 empty empty empty 17 7 0 10 -262144
-1 -1;
#X obj 462 495 vs.bltri~;
#X obj 665 532 vs.bltri~;
#X obj 522 449 * 3;
#X obj 700 480 * 3;
#X obj 462 612 *~ 0.5;
#X obj 664 612 *~ 0.5;
#X obj 462 306 metro 1200;
#X obj 663 306 metro 1300;
#X obj 884 90 vs.xrandom 15;
#X obj 462 400 + 48;
#X obj 663 405 + 48;
#X obj 134 702 *~ 1;
#X obj 405 696 *~ 1;
#X obj 134 731 delwrite~ sx 2000;
#X obj 77 766 delread~ sx 250;
#X obj 525 731 delwrite~ dx 2000;
#X obj 467 766 delread~ dx 250;
#X obj 77 795 *~ 0.25;
#X obj 468 795 *~ 0.25;
#X msg 419 56 36, f 2;
#X obj 524 118 + 12;
#X msg 492 59 41;
#X obj 80 533 vcf~ 2;
#X obj 283 534 vcf~ 2;
#X obj 462 560 vcf~ 2;
#X obj 665 561 vcf~ 2;
#X msg 86 18 0 2 3 5 7 8 10;
#X floatatom 653 820 5 0 0 0 - - -;
#X obj 171 226 tgl 15 0 empty empty empty 17 7 0 10 -262144 -1 -1 1
1;
#X obj 305 248 tgl 15 0 empty empty empty 17 7 0 10 -262144 -1 -1 1
1;
#X obj 281 279 metro 1050;
#X connect 2 0 48 0;
#X connect 3 0 2 0;
#X connect 4 0 5 0;
#X connect 4 1 7 0;
#X connect 5 0 12 0;
#X connect 6 0 9 0;
#X connect 7 0 8 0;
#X connect 8 0 6 1;
#X connect 9 0 10 0;
#X connect 9 0 11 0;
#X connect 12 0 6 0;
#X connect 14 0 24 0;
#X connect 14 0 26 0;
#X connect 15 0 16 0;
#X connect 16 0 19 0;
#X connect 18 0 15 0;
#X connect 18 0 34 0;
#X connect 18 0 70 0;
#X connect 19 0 30 0;
#X connect 20 0 25 0;
#X connect 20 0 27 0;
#X connect 21 0 22 0;
#X connect 22 0 31 0;
#X connect 23 0 16 4;
#X connect 23 0 21 4;
#X connect 24 0 62 0;
#X connect 25 0 63 0;
#X connect 26 0 62 1;
#X connect 27 0 63 1;
#X connect 28 0 51 0;
#X connect 29 0 52 0;
#X connect 30 0 14 0;
#X connect 31 0 20 0;
#X connect 32 0 40 0;
#X connect 32 0 42 0;
#X connect 33 0 35 0;
#X connect 34 0 46 0;
#X connect 34 0 47 0;
#X connect 35 0 49 0;
#X connect 36 0 41 0;
#X connect 36 0 43 0;
#X connect 37 0 38 0;
#X connect 38 0 50 0;
#X connect 39 0 33 4;
#X connect 39 0 37 4;
#X connect 40 0 64 0;
#X connect 41 0 65 0;
#X connect 42 0 64 1;
#X connect 43 0 65 1;
#X connect 44 0 51 0;
#X connect 45 0 52 0;
#X connect 46 0 33 0;
#X connect 47 0 37 0;
#X connect 48 0 4 0;
#X connect 49 0 32 0;
#X connect 50 0 36 0;
#X connect 51 0 17 0;
#X connect 51 0 53 0;
#X connect 52 0 17 1;
#X connect 52 0 55 0;
#X connect 54 0 57 0;
#X connect 56 0 58 0;
#X connect 57 0 53 0;
#X connect 57 0 17 0;
#X connect 58 0 55 0;
#X connect 58 0 17 1;
#X connect 59 0 60 0;
#X connect 59 0 30 1;
#X connect 59 0 31 1;
#X connect 60 0 49 1;
#X connect 60 0 50 1;
#X connect 61 0 60 0;
#X connect 61 0 31 1;
#X connect 61 0 30 1;
#X connect 62 0 28 0;
#X connect 63 0 29 0;
#X connect 64 0 44 0;
#X connect 65 0 45 0;
#X connect 66 0 1 0;
#X connect 67 0 58 1;
#X connect 67 0 57 1;
#X connect 68 0 15 0;
#X connect 69 0 70 0;
#X connect 70 0 21 0;
