#N canvas 564 203 1145 781 12;
#X obj 226 242 osc~;
#X obj 261 323 *~ 0.25;
#X obj 297 436 dac~;
#X obj 334 214 noise~;
#X obj 103 76 *~;
#X obj 103 28 osc~ 600;
#X floatatom 209 39 5 0 0 0 - - -;
#X floatatom 202 5 5 0 0 0 - - -;
#X obj 260 293 *~;
#X obj 334 239 *~ 0.05;
#X obj 334 264 +~ 0.95;
#X obj 181 99 expr~ int($v1 * 10) / 10;
#X obj 419 247 osc~;
#X obj 418 344 *~ 0.25;
#X obj 527 219 noise~;
#X obj 440 297 *~;
#X obj 527 244 *~ 0.05;
#X obj 527 269 +~ 0.95;
#X obj 393 158 *~;
#X obj 631 51 osc~ 0.11;
#X obj 631 76 *~ 0.5;
#X obj 631 101 +~ 0.5;
#X obj 465 115 *~;
#X obj 35 147 osc~ 0.11;
#X obj 35 172 *~ 0.5;
#X obj 35 197 +~ 0.5;
#X obj 180 132 *~;
#X obj 456 78 expr~ int($v1 * 10) / 10;
#X obj 227 210 +~ 60;
#X obj 420 215 +~ 61;
#X obj 181 74 osc~ 0.04;
#X obj 456 53 osc~ 0.05;
#X obj 631 126 *~ 8000;
#X obj 35 222 *~ 7800;
#X obj 597 595 *~ 0.25;
#X obj 581 639 dac~;
#X obj 599 469 osc~;
#X obj 600 437 +~ 60;
#X obj 600 400 *~;
#X obj 600 364 osc~ 600;
#X msg 770 380 0;
#X obj 709 149 bng 15 250 50 0 empty empty empty 17 7 0 10 -262144
-1 -1;
#X obj 687 329 vs.curve~;
#X obj 709 169 random 10;
#X floatatom 709 244 5 0 0 0 - - -;
#X obj 709 219 * 50;
#X obj 709 194 + 3;
#X msg 687 304 0 \, 2500 10000 4;
#X obj 630 533 *~;
#X obj 688 528 *~ 0.25;
#X obj 688 553 +~ 0.75;
#X obj 689 481 osc~ 8;
#X connect 0 0 8 0;
#X connect 3 0 9 0;
#X connect 4 0 28 0;
#X connect 5 0 4 0;
#X connect 5 0 18 0;
#X connect 6 0 4 1;
#X connect 7 0 5 0;
#X connect 8 0 1 0;
#X connect 9 0 10 0;
#X connect 10 0 8 1;
#X connect 11 0 26 0;
#X connect 12 0 15 0;
#X connect 14 0 16 0;
#X connect 15 0 13 0;
#X connect 16 0 17 0;
#X connect 17 0 15 1;
#X connect 18 0 29 0;
#X connect 19 0 20 0;
#X connect 20 0 21 0;
#X connect 21 0 32 0;
#X connect 22 0 18 1;
#X connect 23 0 24 0;
#X connect 24 0 25 0;
#X connect 25 0 33 0;
#X connect 26 0 4 1;
#X connect 27 0 22 0;
#X connect 28 0 0 0;
#X connect 29 0 12 0;
#X connect 30 0 11 0;
#X connect 31 0 27 0;
#X connect 32 0 22 1;
#X connect 33 0 26 1;
#X connect 34 0 35 0;
#X connect 34 0 35 1;
#X connect 36 0 48 0;
#X connect 37 0 36 0;
#X connect 38 0 37 0;
#X connect 39 0 38 0;
#X connect 40 0 42 0;
#X connect 41 0 47 0;
#X connect 41 0 43 0;
#X connect 42 0 38 1;
#X connect 42 1 40 0;
#X connect 43 0 46 0;
#X connect 45 0 39 0;
#X connect 45 0 44 0;
#X connect 46 0 45 0;
#X connect 47 0 42 0;
#X connect 48 0 34 0;
#X connect 49 0 50 0;
#X connect 50 0 48 1;
#X connect 51 0 49 0;
