#N canvas 0 58 1920 1022 12;
#X obj 135 19 inlet;
#X obj 135 124 vs.click~;
#X obj 206 190 vcf~ 1000;
#X obj 135 65 metro \$1;
#X obj 235 122 sig~ \$2;
#X obj 213 324 outlet~;
#X obj 298 325 outlet~;
#X obj 298 179 tgl 15 0 empty empty empty 17 7 0 10 -262144 -1 -1 1
1;
#X obj 323 216 expr 1 - $f1;
#X obj 206 215 *~ 400;
#X obj 274 46 loadbang;
#X obj 274 71 \$2;
#X obj 429 63 expr 1000 / \$1;
#X obj 238 289 vs.pan~;
#X obj 428 140 expr~ if ($v1 <= $f2 \, $v1 / $f2 \, (1 - $v1) / (1.
- $f2));
#X obj 428 116 phasor~ 100;
#X floatatom 877 175 5 0 0 0 - - -;
#X obj 827 61 loadbang;
#X obj 827 86 f 0.5;
#X connect 0 0 3 0;
#X connect 1 0 2 0;
#X connect 2 0 9 0;
#X connect 3 0 1 0;
#X connect 3 0 7 0;
#X connect 4 0 2 1;
#X connect 7 0 8 0;
#X connect 9 0 13 0;
#X connect 10 0 11 0;
#X connect 10 0 12 0;
#X connect 11 0 2 2;
#X connect 12 0 15 0;
#X connect 13 0 5 0;
#X connect 13 1 6 0;
#X connect 14 0 13 1;
#X connect 15 0 14 0;
#X connect 16 0 14 1;
#X connect 17 0 18 0;
#X connect 18 0 14 1;
