#N canvas 0 58 1920 1022 16;
#X obj 88 279 *~;
#X obj 88 318 *~ 1;
#X obj 87 438 osc~;
#X obj 87 368 +~;
#X obj 87 405 +~ 80;
#X obj 181 513 *~ 0.1;
#X floatatom 357 217 5 0 0 0 - - -;
#X obj 181 542 *~;
#X obj 360 329 *~ 400;
#X obj 440 37 inlet phase;
#X obj 181 571 outlet~;
#X obj 89 50 loadbang;
#X obj 89 79 f \$2;
#X obj 356 298 *~ 8;
#X obj 277 63 loadbang;
#X obj 277 92 f \$1;
#X obj 334 175 phasor~;
#X obj 331 258 expr~ pow(1 - $v1 \, 1.25);
#X obj 89 133 osc~;
#X connect 0 0 1 0;
#X connect 1 0 3 0;
#X connect 2 0 5 0;
#X connect 3 0 4 0;
#X connect 4 0 2 0;
#X connect 5 0 7 0;
#X connect 6 0 13 1;
#X connect 7 0 10 0;
#X connect 8 0 0 1;
#X connect 9 0 16 1;
#X connect 11 0 12 0;
#X connect 12 0 8 1;
#X connect 12 0 18 0;
#X connect 13 0 8 0;
#X connect 14 0 15 0;
#X connect 15 0 16 0;
#X connect 16 0 17 0;
#X connect 17 0 7 1;
#X connect 17 0 13 0;
#X connect 18 0 0 0;
