#N canvas 400 105 1411 871 12;
#X msg 258 346 0 \, 1 2 0 \, 0.75 20 20;
#X obj 283 404 vline~;
#X obj 323 576 *~;
#X obj 323 601 *~ 0.25;
#X obj 323 626 dac~;
#X obj 371 509 vs.bltri~;
#X floatatom 381 463 5 0 0 0 - - -;
#X msg 478 427 0 \, 1 2 0 \, 0.75 20 20;
#X obj 502 515 vline~;
#X obj 586 611 *~;
#X obj 586 636 *~ 0.25;
#X obj 586 661 dac~;
#X obj 634 544 vs.bltri~;
#X floatatom 644 498 5 0 0 0 - - -;
#X obj 358 221 tgl 15 0 empty empty empty 17 7 0 10 -262144 -1 -1 1
1;
#X obj 358 269 sel 0 1;
#X obj 35 40 array define scale 7;
#X msg 25 72 0 2 4 5 7 9 11;
#X obj 25 97 array set scale;
#X obj 481 31 metro 4000;
#X obj 481 56 t b b;
#X obj 533 105 random 15;
#X obj 533 130 t f f;
#X obj 533 155 % 7;
#X obj 533 180 tabread scale;
#X obj 610 217 div 7;
#X obj 610 242 * 12;
#X obj 533 205 +;
#X obj 533 230 + 48;
#X obj 533 255 mtof;
#X obj 487 336 f;
#X obj 545 332 f;
#X obj 685 58 tgl 15 0 empty empty empty 17 7 0 10 -262144 -1 -1 1
1;
#X msg 712 355 0 \, 1 2 0 \, 0.75 20 20;
#X obj 737 413 vline~;
#X obj 777 585 *~;
#X obj 777 610 *~ 0.25;
#X obj 777 635 dac~;
#X obj 825 518 vs.bltri~;
#X floatatom 835 472 5 0 0 0 - - -;
#X msg 932 436 0 \, 1 2 0 \, 0.75 20 20;
#X obj 956 524 vline~;
#X obj 1040 620 *~;
#X obj 1040 645 *~ 0.25;
#X obj 1040 670 dac~;
#X obj 1088 553 vs.bltri~;
#X floatatom 1098 507 5 0 0 0 - - -;
#X obj 812 230 tgl 15 0 empty empty empty 17 7 0 10 -262144 -1 -1 1
1;
#X obj 812 278 sel 0 1;
#X obj 937 24 metro 4000;
#X obj 935 65 t b b;
#X obj 987 114 random 15;
#X obj 987 139 t f f;
#X obj 987 164 % 7;
#X obj 987 189 tabread scale;
#X obj 1064 226 div 7;
#X obj 1064 251 * 12;
#X obj 987 214 +;
#X obj 987 264 mtof;
#X obj 941 345 f;
#X obj 999 341 f;
#X obj 1092 79 + 1;
#X obj 1092 104 * 500;
#X obj 681 144 + 1;
#X obj 681 169 * 500;
#X msg 301 373 0 250;
#X msg 521 454 0 250;
#X msg 755 382 0 250;
#X msg 975 463 0 250;
#X obj 987 239 + 36;
#X obj 1092 54 random 4;
#X obj 681 119 random 4;
#X connect 0 0 1 0;
#X connect 1 0 2 0;
#X connect 2 0 3 0;
#X connect 3 0 4 0;
#X connect 3 0 4 1;
#X connect 5 0 2 1;
#X connect 6 0 5 0;
#X connect 7 0 8 0;
#X connect 8 0 9 0;
#X connect 9 0 10 0;
#X connect 10 0 11 0;
#X connect 10 0 11 1;
#X connect 12 0 9 1;
#X connect 13 0 12 0;
#X connect 14 0 15 0;
#X connect 15 0 0 0;
#X connect 15 0 66 0;
#X connect 15 0 30 0;
#X connect 15 1 7 0;
#X connect 15 1 65 0;
#X connect 15 1 31 0;
#X connect 17 0 18 0;
#X connect 19 0 20 0;
#X connect 19 0 71 0;
#X connect 20 0 14 0;
#X connect 20 1 21 0;
#X connect 21 0 22 0;
#X connect 22 0 23 0;
#X connect 22 1 25 0;
#X connect 23 0 24 0;
#X connect 24 0 27 0;
#X connect 25 0 26 0;
#X connect 26 0 27 1;
#X connect 27 0 28 0;
#X connect 28 0 29 0;
#X connect 29 0 30 1;
#X connect 29 0 31 1;
#X connect 30 0 6 0;
#X connect 31 0 13 0;
#X connect 32 0 19 0;
#X connect 32 0 49 0;
#X connect 33 0 34 0;
#X connect 34 0 35 0;
#X connect 35 0 36 0;
#X connect 36 0 37 0;
#X connect 36 0 37 1;
#X connect 38 0 35 1;
#X connect 39 0 38 0;
#X connect 40 0 41 0;
#X connect 41 0 42 0;
#X connect 42 0 43 0;
#X connect 43 0 44 0;
#X connect 43 0 44 1;
#X connect 45 0 42 1;
#X connect 46 0 45 0;
#X connect 47 0 48 0;
#X connect 48 0 33 0;
#X connect 48 0 68 0;
#X connect 48 0 59 0;
#X connect 48 1 40 0;
#X connect 48 1 67 0;
#X connect 48 1 60 0;
#X connect 49 0 50 0;
#X connect 49 0 70 0;
#X connect 50 0 47 0;
#X connect 50 1 51 0;
#X connect 51 0 52 0;
#X connect 52 0 53 0;
#X connect 52 1 55 0;
#X connect 53 0 54 0;
#X connect 54 0 57 0;
#X connect 55 0 56 0;
#X connect 56 0 57 1;
#X connect 57 0 69 0;
#X connect 58 0 59 1;
#X connect 58 0 60 1;
#X connect 59 0 39 0;
#X connect 60 0 46 0;
#X connect 61 0 62 0;
#X connect 62 0 49 1;
#X connect 63 0 64 0;
#X connect 64 0 19 1;
#X connect 65 0 1 0;
#X connect 66 0 8 0;
#X connect 67 0 34 0;
#X connect 68 0 41 0;
#X connect 69 0 58 0;
#X connect 70 0 61 0;
#X connect 71 0 63 0;
