#N canvas 561 229 1231 770 12;
#X obj 224 117 bng 15 250 50 0 empty empty empty 17 7 0 10 -262144
-1 -1;
#X obj 285 339 * 1.618;
#X obj 231 338 f 80;
#X obj 224 137 t b b;
#X obj 168 549 dac~;
#X obj 155 227 t f b;
#X obj 178 398 pack 0 0;
#X obj 155 252 + 0;
#X obj 178 455 clone last_osc 12;
#X obj 95 192 vs.uzi 12;
#X obj 256 279 f 60;
#X floatatom 595 241 5 0 0 0 - - -;
#X obj 595 265 s panner;
#X obj 676 267 s panner_speed;
#X floatatom 682 221 5 0 0 0 - - -;
#X floatatom 597 312 5 0 0 0 - - -;
#X obj 597 337 s filt_speed;
#X floatatom 598 370 5 0 0 0 - - -;
#X obj 598 395 s amp_speed;
#X connect 0 0 3 0;
#X connect 1 0 2 1;
#X connect 2 0 1 0;
#X connect 2 0 6 1;
#X connect 3 0 9 0;
#X connect 3 1 10 0;
#X connect 5 0 7 0;
#X connect 5 1 2 0;
#X connect 6 0 8 0;
#X connect 7 0 6 0;
#X connect 8 0 4 0;
#X connect 8 1 4 1;
#X connect 9 2 5 0;
#X connect 10 0 2 1;
#X connect 11 0 12 0;
#X connect 14 0 13 0;
#X connect 15 0 16 0;
#X connect 17 0 18 0;
