#N canvas 4 62 888 748 16;
#X obj 161 194 *~;
#X obj 161 236 +~;
#X obj 161 265 tabread4~ sample;
#X obj 222 227 samphold~;
#X obj 332 264 tabread4~ env;
#X obj 334 223 *~ 256;
#X obj 235 376 *~;
#X obj 160 113 wrap~;
#X obj 443 395 *~;
#X obj 444 310 tabread4~ sample2;
#X obj 160 80 +~ \$1;
#X obj 235 405 outlet~;
#X obj 443 424 outlet~;
#X obj 159 33 inlet~ phase;
#X obj 291 32 inlet~ samphold;
#X obj 467 38 inlet~ fraglen;
#X connect 0 0 1 0;
#X connect 1 0 2 0;
#X connect 1 0 9 0;
#X connect 2 0 6 0;
#X connect 3 0 1 1;
#X connect 4 0 6 1;
#X connect 4 0 8 1;
#X connect 5 0 4 0;
#X connect 6 0 11 0;
#X connect 7 0 0 0;
#X connect 7 0 3 1;
#X connect 7 0 5 0;
#X connect 8 0 12 0;
#X connect 9 0 8 0;
#X connect 10 0 7 0;
#X connect 13 0 10 0;
#X connect 14 0 3 0;
#X connect 15 0 0 1;
