#N canvas 680 381 846 500 12;
#X obj 136 94 bng 15 250 50 0 empty empty empty 17 7 0 10 -262144 -1
-1;
#X obj 136 114 openpanel;
#X msg 136 139 read -resize \$1 array;
#X obj 136 164 soundfiler;
#X obj 339 42 array define array;
#X floatatom 563 169 0 0 0 0 - - -;
#X obj 448 198 phasor~ 8;
#X msg 702 52 44100;
#X obj 702 77 / 8;
#X floatatom 702 102 5 0 0 0 - - -;
#X obj 448 314 *~ 5512;
#X obj 447 364 tabread4~ array;
#X obj 448 339 +~;
#X obj 447 389 dac~;
#X floatatom 86 380 5 0 0 0 - - -;
#X obj 86 404 * 44100;
#X obj 545 200 *~;
#X msg 522 51 0;
#X obj 509 251 samphold~;
#X obj 546 109 phasor~ 1e-05;
#X connect 0 0 1 0;
#X connect 1 0 2 0;
#X connect 2 0 3 0;
#X connect 3 0 5 0;
#X connect 5 0 16 1;
#X connect 6 0 10 0;
#X connect 6 0 18 1;
#X connect 7 0 8 0;
#X connect 8 0 9 0;
#X connect 10 0 12 0;
#X connect 11 0 13 0;
#X connect 11 0 13 1;
#X connect 12 0 11 0;
#X connect 14 0 15 0;
#X connect 16 0 18 0;
#X connect 17 0 6 1;
#X connect 17 0 19 1;
#X connect 18 0 12 1;
#X connect 19 0 16 0;
