#N canvas 652 386 1226 637 12;
#X obj 133 127 list fromsymbol;
#X obj 133 152 list split 5;
#X obj 133 182 list tosymbol;
#X obj 133 207 list trim;
#X obj 193 260 print;
#X msg 167 84 symbol black123123;
#X obj 422 162 netreceive -b -u 9000;
#X obj 422 187 oscparse;
#X obj 299 270 print;
#X obj 422 212 list trim;
#X obj 422 339 list fromsymbol;
#X obj 422 364 list split 5;
#X obj 422 394 list tosymbol;
#X obj 422 419 list trim;
#X obj 422 273 route name;
#X obj 422 298 symbol;
#X obj 422 469 print marka;
#X obj 526 471 print black;
#X obj 422 248 route lastmarker lastregion;
#X obj 422 444 route marka black track, f 30;
#X obj 614 471 print track;
#X connect 0 0 1 0;
#X connect 1 0 2 0;
#X connect 2 0 3 0;
#X connect 3 0 4 0;
#X connect 5 0 0 0;
#X connect 6 0 7 0;
#X connect 7 0 9 0;
#X connect 9 0 18 0;
#X connect 10 0 11 0;
#X connect 11 0 12 0;
#X connect 12 0 13 0;
#X connect 13 0 19 0;
#X connect 14 0 15 0;
#X connect 15 0 10 0;
#X connect 18 0 14 0;
#X connect 18 1 14 0;
#X connect 19 0 16 0;
#X connect 19 1 17 0;
#X connect 19 2 20 0;
